<?xml version="1.0" encoding="UTF-8"?>
<svg version="1.1" xmlns="http://www.w3.org/2000/svg" width="142" height="135">
<path d="M0 0 C2.12109375 1.6796875 2.12109375 1.6796875 3.5625 3.125 C3.5625 3.785 3.5625 4.445 3.5625 5.125 C4.2225 5.125 4.8825 5.125 5.5625 5.125 C20.52289614 22.23099323 24.69899049 39.94384075 23.5625 62.125 C21.64738055 78.11361191 12.19887099 93.05262866 -0.09472656 103.14111328 C-17.68452948 116.91719786 -36.52521798 120.92800916 -58.4375 119.125 C-77.19509021 116.76966548 -93.81713611 106.98238609 -105.375 92.125 C-117.06577392 75.61416016 -120.93542205 57.61863233 -117.90625 37.6171875 C-117.22825579 35.03049219 -116.43230496 32.60560807 -115.4375 30.125 C-115.14746094 29.36574219 -114.85742188 28.60648438 -114.55859375 27.82421875 C-111.1641048 19.60074971 -106.5721032 11.60041449 -100.4375 5.125 C-99.7775 5.125 -99.1175 5.125 -98.4375 5.125 C-98.4375 4.465 -98.4375 3.805 -98.4375 3.125 C-70.5920677 -22.33516249 -29.5186523 -22.09286633 0 0 Z " fill="#F3F4F7" transform="translate(118.4375,15.875)"/>
<path d="M0 0 C0.33 0 0.66 0 1 0 C1.01213028 0.92961296 1.01213028 0.92961296 1.02450562 1.87800598 C1.11044519 8.31805228 1.20994402 14.75778699 1.31738281 21.19750977 C1.35570782 23.60207901 1.39055441 26.00670628 1.421875 28.41137695 C1.46744882 31.86430628 1.5254563 35.3168349 1.5859375 38.76953125 C1.59748871 39.84773636 1.60903992 40.92594147 1.62094116 42.03681946 C1.64081085 43.03763046 1.66068054 44.03844147 1.68115234 45.06958008 C1.69447601 45.95116287 1.70779968 46.83274567 1.7215271 47.74104309 C1.863101 50.2807783 1.863101 50.2807783 4 53 C7.04195427 53.33340471 7.04195427 53.33340471 10 53 C11.65297909 51.34702091 11.16692183 49.38963445 11.20532227 47.11303711 C11.22526749 46.07203354 11.24521271 45.03102997 11.26576233 43.95848083 C11.28247482 42.8262056 11.29918732 41.69393036 11.31640625 40.52734375 C11.33718735 39.37456436 11.35796844 38.22178497 11.37937927 37.03407288 C11.44499964 33.33527843 11.50381755 29.63641041 11.5625 25.9375 C11.60567335 23.43684121 11.64928724 20.93618999 11.69335938 18.43554688 C11.80069368 12.29044338 11.90243643 6.14526596 12 0 C14.03816758 3.05725136 15.11792267 5.80704935 16.375 9.25 C19.1253331 17.81360161 19.1253331 17.81360161 25 24 C25 23.34 25 22.68 25 22 C26.92587579 20.36860063 28.84326717 18.86276775 30.875 17.375 C31.43058594 16.95476563 31.98617187 16.53453125 32.55859375 16.1015625 C36.73764712 13 36.73764712 13 39 13 C39 18.94 39 24.88 39 31 C39.99 30.505 39.99 30.505 41 30 C43.55157655 29.9283265 46.07472971 29.90691558 48.625 29.9375 C49.68460938 29.94426758 49.68460938 29.94426758 50.765625 29.95117188 C52.51045275 29.96296125 54.255237 29.98089676 56 30 C54.11380178 37.03645577 52.13072305 44.03359344 50 51 C51.175625 51.103125 52.35125 51.20625 53.5625 51.3125 C57.82485903 51.82914958 61.14087534 53.1508361 65 55 C64.41589355 55.28681641 63.83178711 55.57363281 63.22998047 55.86914062 C61.21968532 56.888594 59.27047509 57.96468144 57.3203125 59.09375 C56.29744141 59.67962891 56.29744141 59.67962891 55.25390625 60.27734375 C53.84050618 61.08907627 52.42902352 61.90415703 51.01953125 62.72265625 C44.88676342 66.22214524 39.81730231 68.28482894 32.625 68.125 C31.56539063 68.10695313 30.50578125 68.08890625 29.4140625 68.0703125 C28.61742188 68.04710938 27.82078125 68.02390625 27 68 C27 67.67 27 67.34 27 67 C27.69222656 66.9484375 28.38445312 66.896875 29.09765625 66.84375 C37.47930983 65.87196408 43.57084829 62.91971524 50.75 58.77734375 C53.30393045 57.38066303 55.17056348 56.45978343 58 56 C58 55.34 58 54.68 58 54 C54.51422786 53.42141897 51.46929716 53.25375517 48 54 C45.5244028 56.07698409 43.71846849 58.24971245 41.7890625 60.8359375 C39.92578136 63.08977539 38.77145822 64.11184929 36 65 C33.75 64.625 33.75 64.625 32 64 C32.53109375 63.69707031 33.0621875 63.39414063 33.609375 63.08203125 C38.60218663 60.12096596 42.33682775 57.3263445 45 52 C43.02 52 41.04 52 39 52 C38.79375 52.886875 38.5875 53.77375 38.375 54.6875 C36.57608264 59.02125547 34.90058468 60.42561411 31 63 C28.625 62.8125 28.625 62.8125 27 62 C27.928125 61.443125 28.85625 60.88625 29.8125 60.3125 C32.9419407 58.04212145 34.29754051 56.40491897 36 53 C34.35 52.67 32.7 52.34 31 52 C34 50 34 50 38 50 C37.505 42.575 37.505 42.575 37 35 C34.03 35.99 31.06 36.98 28 38 C27.89042969 38.66386719 27.78085938 39.32773437 27.66796875 40.01171875 C26.78863977 44.90879478 26.00548286 48.90161428 23 53 C21.54952604 50.09905209 22.54643197 48.44027404 23.4375 45.375 C23.86869141 43.87066406 23.86869141 43.87066406 24.30859375 42.3359375 C24.53675781 41.56507812 24.76492187 40.79421875 25 40 C24.236875 40.78375 23.47375 41.5675 22.6875 42.375 C20 45 20 45 17 47 C18.07645811 43.57490602 18.97804177 42.01991561 21.6875 39.5625 C22.8321875 38.2940625 22.8321875 38.2940625 24 37 C23.94607807 33.74961511 23.94607807 33.74961511 23 31 C22.34 31 21.68 31 21 31 C20.37237545 32.22782862 19.74803935 33.45733836 19.125 34.6875 C18.77695313 35.37199219 18.42890625 36.05648437 18.0703125 36.76171875 C15.94945643 41.19693965 14.73170115 44.87813408 14.375 49.8125 C14.30023438 50.78832031 14.22546875 51.76414063 14.1484375 52.76953125 C14.07496094 53.87361328 14.07496094 53.87361328 14 55 C13.01 55 12.02 55 11 55 C11.66 55.99 12.32 56.98 13 58 C13.54877042 61.56700771 13.70611653 63.94287786 11.65625 67.01171875 C10.16322674 68.74771042 8.63564338 70.39843252 7 72 C4.35247996 69.42215154 2.05567935 67.08351902 0 64 C0.45283019 57.54716981 0.45283019 57.54716981 3 55 C2.01 54.34 1.02 53.68 0 53 C-0.51953125 50.8203125 -0.51953125 50.8203125 -0.8125 48.125 C-1.84094353 41.37304464 -4.71333692 35.92219479 -8 30 C-10.29013653 33.4352048 -10.17842973 34.985331 -10 39 C-10.66 39 -11.32 39 -12 39 C-12 40.65 -12 42.3 -12 44 C-12.33 44 -12.66 44 -13 44 C-12.979375 43.0925 -12.95875 42.185 -12.9375 41.25 C-13.64253844 37.91486509 -13.64253844 37.91486509 -16.0703125 36.7109375 C-18.35701427 35.71453767 -20.64125546 34.81007388 -23 34 C-23.05434116 36.5419589 -23.0938339 39.08273682 -23.125 41.625 C-23.14175781 42.33785156 -23.15851562 43.05070312 -23.17578125 43.78515625 C-23.23019442 49.71619222 -22.63429757 54.20227267 -18.5 58.75 C-17.675 59.4925 -16.85 60.235 -16 61 C-15.34 61.66 -14.68 62.32 -14 63 C-18.84824868 62.58443583 -20.88036862 60.62551755 -24 57 C-25.3125 54.6875 -25.3125 54.6875 -26 53 C-27.65 53 -29.3 53 -31 53 C-27.91986848 58.21253027 -24.86371958 61.77253674 -18.8359375 63.6875 C-16.90359293 64.17912123 -14.95254975 64.59602419 -13 65 C-13 65.33 -13 65.66 -13 66 C-20.49977116 65.76191203 -25.27372054 63.90988218 -31 59 C-34 55.46 -34 55.46 -34 53 C-36.97 53.66 -39.94 54.32 -43 55 C-40.60688647 56.46295997 -38.21071914 57.9204522 -35.8125 59.375 C-34.80219727 59.99375 -34.80219727 59.99375 -33.77148438 60.625 C-28.47065031 63.83135816 -23.95969767 66.12322419 -17.6875 66.625 C-16.80449219 66.69976562 -15.92148437 66.77453125 -15.01171875 66.8515625 C-14.01591797 66.92503906 -14.01591797 66.92503906 -13 67 C-13 67.33 -13 67.66 -13 68 C-26.02177581 70.16664841 -34.91670264 64.62818006 -45.84033203 58.23681641 C-47.86172149 57.07919047 -49.90630605 56.01979129 -52 55 C-50.46412859 54.32008855 -48.92094499 53.6566846 -47.375 53 C-46.51648438 52.62875 -45.65796875 52.2575 -44.7734375 51.875 C-41.71199023 50.90913495 -39.19094773 50.85027811 -36 51 C-36.18175781 50.47043701 -36.36351562 49.94087402 -36.55078125 49.39526367 C-37.37190719 46.99425985 -38.18602171 44.5909359 -39 42.1875 C-39.28617188 41.35412109 -39.57234375 40.52074219 -39.8671875 39.66210938 C-40.13789062 38.85966797 -40.40859375 38.05722656 -40.6875 37.23046875 C-40.93886719 36.49207764 -41.19023438 35.75368652 -41.44921875 34.99291992 C-42 33 -42 33 -42 30 C-40.10424749 29.97278824 -38.20838021 29.95350864 -36.3125 29.9375 C-35.25675781 29.92589844 -34.20101562 29.91429688 -33.11328125 29.90234375 C-30 30 -30 30 -25 31 C-25.33 25.06 -25.66 19.12 -26 13 C-20.56253045 14.81248985 -18.30851502 16.05370669 -14.125 19.625 C-13.15820312 20.44226563 -12.19140625 21.25953125 -11.1953125 22.1015625 C-10.47085938 22.72804688 -9.74640625 23.35453125 -9 24 C-8.73316406 23.30777344 -8.46632812 22.61554687 -8.19140625 21.90234375 C-6.42505129 17.59938724 -4.36200115 13.4416014 -2.33984375 9.25390625 C-1.04811696 6.11685547 -0.40991143 3.35520093 0 0 Z " fill="#263A74" transform="translate(64,5)"/>
<path d="M0 0 C0.33 0 0.66 0 1 0 C1 17.16 1 34.32 1 52 C0.67 52 0.34 52 0 52 C-0.15855469 51.24976563 -0.31710938 50.49953125 -0.48046875 49.7265625 C-2.11476148 42.55734468 -4.40985645 36.41401141 -8 30 C-10.29013653 33.4352048 -10.17842973 34.985331 -10 39 C-10.66 39 -11.32 39 -12 39 C-12 40.65 -12 42.3 -12 44 C-12.33 44 -12.66 44 -13 44 C-12.979375 43.0925 -12.95875 42.185 -12.9375 41.25 C-13.64253844 37.91486509 -13.64253844 37.91486509 -16.0703125 36.7109375 C-18.35701427 35.71453767 -20.64125546 34.81007388 -23 34 C-23.05434116 36.5419589 -23.0938339 39.08273682 -23.125 41.625 C-23.14175781 42.33785156 -23.15851562 43.05070312 -23.17578125 43.78515625 C-23.23019442 49.71619222 -22.63429757 54.20227267 -18.5 58.75 C-17.675 59.4925 -16.85 60.235 -16 61 C-15.34 61.66 -14.68 62.32 -14 63 C-18.84824868 62.58443583 -20.88036862 60.62551755 -24 57 C-25.3125 54.6875 -25.3125 54.6875 -26 53 C-27.65 53 -29.3 53 -31 53 C-27.91986848 58.21253027 -24.86371958 61.77253674 -18.8359375 63.6875 C-16.90359293 64.17912123 -14.95254975 64.59602419 -13 65 C-13 65.33 -13 65.66 -13 66 C-20.49977116 65.76191203 -25.27372054 63.90988218 -31 59 C-34 55.46 -34 55.46 -34 53 C-36.97 53.66 -39.94 54.32 -43 55 C-40.60688647 56.46295997 -38.21071914 57.9204522 -35.8125 59.375 C-34.80219727 59.99375 -34.80219727 59.99375 -33.77148438 60.625 C-28.47065031 63.83135816 -23.95969767 66.12322419 -17.6875 66.625 C-16.80449219 66.69976562 -15.92148437 66.77453125 -15.01171875 66.8515625 C-14.01591797 66.92503906 -14.01591797 66.92503906 -13 67 C-13 67.33 -13 67.66 -13 68 C-26.02177581 70.16664841 -34.91670264 64.62818006 -45.84033203 58.23681641 C-47.86172149 57.07919047 -49.90630605 56.01979129 -52 55 C-50.46412859 54.32008855 -48.92094499 53.6566846 -47.375 53 C-46.51648438 52.62875 -45.65796875 52.2575 -44.7734375 51.875 C-41.71199023 50.90913495 -39.19094773 50.85027811 -36 51 C-36.18175781 50.47043701 -36.36351562 49.94087402 -36.55078125 49.39526367 C-37.37190719 46.99425985 -38.18602171 44.5909359 -39 42.1875 C-39.28617188 41.35412109 -39.57234375 40.52074219 -39.8671875 39.66210938 C-40.13789062 38.85966797 -40.40859375 38.05722656 -40.6875 37.23046875 C-40.93886719 36.49207764 -41.19023438 35.75368652 -41.44921875 34.99291992 C-42 33 -42 33 -42 30 C-40.10424749 29.97278824 -38.20838021 29.95350864 -36.3125 29.9375 C-35.25675781 29.92589844 -34.20101562 29.91429688 -33.11328125 29.90234375 C-30 30 -30 30 -25 31 C-25.33 25.06 -25.66 19.12 -26 13 C-20.56253045 14.81248985 -18.30851502 16.05370669 -14.125 19.625 C-13.15820312 20.44226563 -12.19140625 21.25953125 -11.1953125 22.1015625 C-10.47085938 22.72804688 -9.74640625 23.35453125 -9 24 C-8.73316406 23.30777344 -8.46632812 22.61554687 -8.19140625 21.90234375 C-6.42505129 17.59938724 -4.36200115 13.4416014 -2.33984375 9.25390625 C-1.04811696 6.11685547 -0.40991143 3.35520093 0 0 Z " fill="#172B6A" transform="translate(64,5)"/>
<path d="M0 0 C2.12109375 1.6796875 2.12109375 1.6796875 3.5625 3.125 C3.5625 3.785 3.5625 4.445 3.5625 5.125 C4.2225 5.125 4.8825 5.125 5.5625 5.125 C20.52289614 22.23099323 24.69899049 39.94384075 23.5625 62.125 C21.64738055 78.11361191 12.19887099 93.05262866 -0.09472656 103.14111328 C-17.68452948 116.91719786 -36.52521798 120.92800916 -58.4375 119.125 C-77.19509021 116.76966548 -93.81713611 106.98238609 -105.375 92.125 C-117.06577392 75.61416016 -120.93542205 57.61863233 -117.90625 37.6171875 C-117.22825579 35.03049219 -116.43230496 32.60560807 -115.4375 30.125 C-115.14746094 29.36574219 -114.85742188 28.60648438 -114.55859375 27.82421875 C-111.1641048 19.60074971 -106.5721032 11.60041449 -100.4375 5.125 C-99.7775 5.125 -99.1175 5.125 -98.4375 5.125 C-98.4375 4.465 -98.4375 3.805 -98.4375 3.125 C-70.5920677 -22.33516249 -29.5186523 -22.09286633 0 0 Z M-76.4375 -8.875 C-77.42492187 -8.41738281 -78.41234375 -7.95976563 -79.4296875 -7.48828125 C-96.04693016 0.91240237 -108.94110119 14.90385402 -114.94360352 32.61181641 C-119.2056734 47.4371982 -117.86533387 64.20942349 -111.4375 78.125 C-111.0146875 79.09179688 -110.591875 80.05859375 -110.15625 81.0546875 C-101.87018016 98.06040061 -86.51613273 108.31152441 -69.4375 115.125 C-62.60691047 117.31744558 -56.20475618 117.42613787 -49.0625 117.375 C-47.99 117.38273438 -46.9175 117.39046875 -45.8125 117.3984375 C-27.03431283 117.35274848 -10.55297787 110.45449342 3.17578125 97.609375 C15.50819865 84.77235787 22.18942719 69.54412855 22 51.75 C21.99242676 50.74485352 21.98485352 49.73970703 21.97705078 48.70410156 C21.57346375 30.45725435 13.02711842 15.20527935 0.125 2.5625 C-16.62728707 -12.08613081 -36.88050292 -14.83748274 -58.3203125 -14.1015625 C-64.86844275 -13.62563323 -70.50838569 -11.6909578 -76.4375 -8.875 Z " fill="#486A92" transform="translate(118.4375,15.875)"/>
<path d="M0 0 C2.6427068 2.35679992 4.07178895 4.76914003 5.625 7.9375 C6.26308594 9.21947266 6.26308594 9.21947266 6.9140625 10.52734375 C8.94375762 15.14891573 9.0972179 18.94466924 9 24 C9.66 24.33 10.32 24.66 11 25 C4.11057434 36.28143451 4.11057434 36.28143451 -1.671875 38.5546875 C-14.11535635 40.93481648 -24.90217074 33.18860716 -35 27 C-32.75633709 24.45718204 -32.15050675 24.02787162 -28.625 23.375 C-25 24 -25 24 -22.6875 27.1875 C-22.3059375 27.82171875 -21.924375 28.4559375 -21.53125 29.109375 C-18.61320282 32.71226999 -14.19106924 34.23405432 -10 36 C-10.58523437 35.72800781 -11.17046875 35.45601562 -11.7734375 35.17578125 C-16.28377713 32.79400541 -20.1440713 29.7118574 -22.4375 25.125 C-22.623125 24.42375 -22.80875 23.7225 -23 23 C-21.02 23 -19.04 23 -17 23 C-16.4225 24.11375 -15.845 25.2275 -15.25 26.375 C-13.57739798 29.33192143 -12.35017758 30.92315721 -9 32 C-9.804375 31.113125 -10.60875 30.22625 -11.4375 29.3125 C-15.40105608 24.94242535 -15.13803466 20.04507692 -15.125 14.375 C-15.12886719 12.68503906 -15.12886719 12.68503906 -15.1328125 10.9609375 C-15 8 -15 8 -14 5 C-12.53932801 5.45082469 -11.08151968 5.91093537 -9.625 6.375 C-8.40683594 6.75785156 -8.40683594 6.75785156 -7.1640625 7.1484375 C-5 8 -5 8 -3 10 C-1.51129729 8.51129729 -1.70656197 7.0656197 -1.5 5 C-1.11111111 1.11111111 -1.11111111 1.11111111 0 0 Z " fill="#223672" transform="translate(55,34)"/>
<path d="M0 0 C2 2 2 2 3.0625 4.625 C2.9655105 9.86243308 -0.39769091 12.46057411 -4 16 C-2.37660195 14.29115995 -0.70680947 12.62553283 1 11 C1.66 11 2.32 11 3 11 C2.67 13.97 2.34 16.94 2 20 C4.20142071 16.20939938 4.20142071 16.20939938 4.3125 12.4375 C5 9 5 9 7.25 7.0625 C10.07369375 5.97152742 12.00490772 5.7432778 15 6 C16.09506492 9.28519475 16.09960608 11.73663415 16.0625 15.1875 C16.05347656 16.27417969 16.04445313 17.36085938 16.03515625 18.48046875 C16.02355469 19.31191406 16.01195313 20.14335938 16 21 C14.68 21.33 13.36 21.66 12 22 C12.99 22.66 13.98 23.32 15 24 C12.89851796 27.98175544 10.63094642 30.35039045 7 33 C9.90709774 32.33552052 11.59463024 31.62857969 13.234375 29.0859375 C13.63140625 28.35632813 14.0284375 27.62671875 14.4375 26.875 C15.6640625 24.7109375 15.6640625 24.7109375 17 23 C20.3125 22.5 20.3125 22.5 23 23 C21.59928507 28.29158974 18.14512755 30.77478044 14 34 C16.9127527 33.65354924 17.85145416 33.17449271 19.7890625 30.8984375 C20.39492187 30.06570312 21.00078125 29.23296875 21.625 28.375 C25.19714237 24.10864882 25.19714237 24.10864882 28.7421875 23.62890625 C31.24515506 23.90898336 33.57684962 24.31973032 36 25 C36 25.66 36 26.32 36 27 C33.31483287 28.48079069 30.62536152 29.95183827 27.92578125 31.40625 C26.26044916 32.31340019 24.6041009 33.23891783 22.98046875 34.21875 C16.85532902 37.74170618 10.01337358 38.86365252 3 39 C-0.5625 37.5 -0.5625 37.5 -3 35 C-3.94875 34.21625 -4.8975 33.4325 -5.875 32.625 C-9.12777444 28.4879762 -8.6111313 23.50610299 -8.42578125 18.48046875 C-7.54563364 11.28586764 -4.15825567 5.79185611 0 0 Z " fill="#2B3E78" transform="translate(86,34)"/>
<path d="M0 0 C22.82039052 -0.72543117 38.97510447 1.99483062 57.48828125 16.51953125 C57.98714844 17.00808594 58.48601562 17.49664063 59 18 C59 18.66 59 19.32 59 20 C59.66 20 60.32 20 61 20 C75.96039614 37.10599323 80.13649049 54.81884075 79 77 C77.08512486 92.98657224 67.63723881 107.93192515 55.34155273 118.01635742 C42.06616936 128.41916337 28.74955792 133.57012079 11.875 133.1875 C10.72773437 133.17396484 9.58046875 133.16042969 8.3984375 133.14648438 C5.59845042 133.11148454 2.79948783 133.06238859 0 133 C0 132.67 0 132.34 0 132 C1.88332031 131.92652344 1.88332031 131.92652344 3.8046875 131.8515625 C26.15052471 130.89582968 44.98563683 125.68836836 61 109 C71.21017591 96.54517452 76.6090666 82.74136761 76.4375 66.625 C76.42992676 65.61985352 76.42235352 64.61470703 76.41455078 63.57910156 C76.01869816 45.68194011 67.77894483 30.36383583 55.0625 17.9375 C42.33992286 7.00745091 26.01143928 2.15046205 9.625 1.4375 C8.69816406 1.39431641 7.77132812 1.35113281 6.81640625 1.30664062 C4.54439706 1.20123814 2.27229075 1.09911394 0 1 C0 0.67 0 0.34 0 0 Z " fill="#4D6E95" transform="translate(63,1)"/>
<path d="M0 0 C2.6427068 2.35679992 4.07178895 4.76914003 5.625 7.9375 C6.05039062 8.79214844 6.47578125 9.64679687 6.9140625 10.52734375 C8.94375762 15.14891573 9.0972179 18.94466924 9 24 C9.66 24.33 10.32 24.66 11 25 C10.01 25.33 9.02 25.66 8 26 C7.34 26.66 6.68 27.32 6 28 C5.91363281 27.34773438 5.82726562 26.69546875 5.73828125 26.0234375 C4.74641149 19.85382562 3.42933725 16.42933725 -1 12 C-1.38281159 17.23175837 -0.21854707 20.37802694 2 25 C-1 27 -1 27 -4.1015625 26.390625 C-5.26429687 26.01421875 -6.42703125 25.6378125 -7.625 25.25 C-8.79289062 24.88390625 -9.96078125 24.5178125 -11.1640625 24.140625 C-14 23 -14 23 -15 21 C-15.09706713 18.85595831 -15.12978536 16.70873249 -15.125 14.5625 C-15.12757812 13.40878906 -15.13015625 12.25507812 -15.1328125 11.06640625 C-15 8 -15 8 -14 5 C-12.53932801 5.45082469 -11.08151968 5.91093537 -9.625 6.375 C-8.81289063 6.63023438 -8.00078125 6.88546875 -7.1640625 7.1484375 C-5 8 -5 8 -3 10 C-1.51129729 8.51129729 -1.70656197 7.0656197 -1.5 5 C-1.11111111 1.11111111 -1.11111111 1.11111111 0 0 Z " fill="#455588" transform="translate(55,34)"/>
<path d="M0 0 C3.96 0 7.92 0 12 0 C12 0.33 12 0.66 12 1 C7.545 1.495 7.545 1.495 3 2 C3.26554687 2.64066406 3.53109375 3.28132813 3.8046875 3.94140625 C5.83545498 8.9145631 7.64392834 13.80172531 9 19 C10.98 19.33 12.96 19.66 15 20 C14.96519531 19.15695313 14.93039063 18.31390625 14.89453125 17.4453125 C14.86746094 16.34960938 14.84039062 15.25390625 14.8125 14.125 C14.76029297 12.48917969 14.76029297 12.48917969 14.70703125 10.8203125 C14.80371094 9.88960937 14.90039062 8.95890625 15 8 C15.99 7.34 16.98 6.68 18 6 C18.04898438 6.94101562 18.09796875 7.88203125 18.1484375 8.8515625 C18.22320312 10.09679688 18.29796875 11.34203125 18.375 12.625 C18.44460937 13.85476562 18.51421875 15.08453125 18.5859375 16.3515625 C19.34361637 23.02771408 21.00338931 26.50305038 26 31 C26.66 31.66 27.32 32.32 28 33 C23.15175132 32.58443583 21.11963138 30.62551755 18 27 C16.6875 24.6875 16.6875 24.6875 16 23 C14.35 23 12.7 23 11 23 C14.08013152 28.21253027 17.13628042 31.77253674 23.1640625 33.6875 C25.09640707 34.17912123 27.04745025 34.59602419 29 35 C29 35.33 29 35.66 29 36 C21.50022884 35.76191203 16.72627946 33.90988218 11 29 C8 25.46 8 25.46 8 23 C5.03 23.66 2.06 24.32 -1 25 C1.39311353 26.46295997 3.78928086 27.9204522 6.1875 29.375 C6.86103516 29.7875 7.53457031 30.2 8.22851562 30.625 C13.52934969 33.83135816 18.04030233 36.12322419 24.3125 36.625 C25.19550781 36.69976562 26.07851563 36.77453125 26.98828125 36.8515625 C27.65214844 36.90054688 28.31601562 36.94953125 29 37 C29 37.33 29 37.66 29 38 C15.97822419 40.16664841 7.08329736 34.62818006 -3.84033203 28.23681641 C-5.86172149 27.07919047 -7.90630605 26.01979129 -10 25 C-8.46412859 24.32008855 -6.92094499 23.6566846 -5.375 23 C-4.51648438 22.62875 -3.65796875 22.2575 -2.7734375 21.875 C0.28800977 20.90913495 2.80905227 20.85027811 6 21 C5.81824219 20.47043701 5.63648438 19.94087402 5.44921875 19.39526367 C4.62809281 16.99425985 3.81397829 14.5909359 3 12.1875 C2.71382812 11.35412109 2.42765625 10.52074219 2.1328125 9.66210938 C1.86210937 8.85966797 1.59140625 8.05722656 1.3125 7.23046875 C1.06113281 6.49207764 0.80976563 5.75368652 0.55078125 4.99291992 C0 3 0 3 0 0 Z " fill="#1F336F" transform="translate(22,35)"/>
<path d="M0 0 C1.09506492 3.28519475 1.09960608 5.73663415 1.0625 9.1875 C1.05347656 10.27417969 1.04445313 11.36085938 1.03515625 12.48046875 C1.02355469 13.31191406 1.01195313 14.14335938 1 15 C0.26394531 15.19335938 -0.47210938 15.38671875 -1.23046875 15.5859375 C-2.20628906 15.84632812 -3.18210937 16.10671875 -4.1875 16.375 C-5.15042969 16.63023438 -6.11335938 16.88546875 -7.10546875 17.1484375 C-9.82210207 17.94766296 -12.39137175 18.9031362 -15 20 C-13 15 -13 15 -11.9375 12.625 C-10.83594378 9.89176863 -10.83594378 9.89176863 -10.6875 6.375 C-10 3 -10 3 -7.75 1.0625 C-4.92630625 -0.02847258 -2.99509228 -0.2567222 0 0 Z " fill="#F1F2F6" transform="translate(101,40)"/>
<path d="M0 0 C1.48034764 0.47550561 2.95925021 0.95551216 4.4375 1.4375 C5.26121094 1.70433594 6.08492187 1.97117188 6.93359375 2.24609375 C9 3 9 3 10 4 C10.53977577 6.7034148 10.96466987 9.41895551 11.40234375 12.140625 C11.98833484 14.94419023 12.8573273 17.37998058 14 20 C13.33613281 19.79503906 12.67226563 19.59007813 11.98828125 19.37890625 C11.10527344 19.10949219 10.22226562 18.84007813 9.3125 18.5625 C8.44238281 18.29566406 7.57226562 18.02882813 6.67578125 17.75390625 C4.12974079 17.03655471 1.5996577 16.482459 -1 16 C-1.02701408 13.89590361 -1.04640223 11.79170822 -1.0625 9.6875 C-1.07410156 8.51574219 -1.08570313 7.34398437 -1.09765625 6.13671875 C-1 3 -1 3 0 0 Z " fill="#F5F6F8" transform="translate(41,39)"/>
<path d="M0 0 C1.41655793 -0.0272415 2.83327045 -0.04650467 4.25 -0.0625 C5.43335938 -0.07990234 5.43335938 -0.07990234 6.640625 -0.09765625 C9 0 9 0 13 1 C12.67 6.61 12.34 12.22 12 18 C10.02 18 8.04 18 6 18 C3.69557475 12.07433507 1.76463072 6.10737442 0 0 Z " fill="#F2F3F7" transform="translate(25,37)"/>
<path d="M0 0 C3.96 0 7.92 0 12 0 C8.85714286 11.71428571 8.85714286 11.71428571 7 17 C4.69 17 2.38 17 0 17 C0 11.39 0 5.78 0 0 Z " fill="#F6F7F9" transform="translate(104,38)"/>
<path d="M0 0 C2 2 2 2 2.5 5.1875 C1.83747509 10.23925245 -0.45048624 12.52443445 -4 16 C-6.64752004 13.42215154 -8.94432065 11.08351902 -11 8 C-10.875 4.4375 -10.875 4.4375 -10 1 C-6.86012947 -1.79099603 -3.86180228 -1.00742668 0 0 Z " fill="#0E2364" transform="translate(75,61)"/>
<path d="M0 0 C3.375 0.875 3.375 0.875 5.375 2.875 C5.81162786 6.8046507 5.97251439 9.01192366 3.6875 12.3125 C1.375 13.875 1.375 13.875 -1.125 14.375 C-4.49513879 13.70097224 -5.64177007 12.6662125 -7.625 9.875 C-8.23475382 6.21647708 -8.07043026 4.56987121 -6.0625 1.4375 C-3.625 -0.125 -3.625 -0.125 0 0 Z " fill="#223672" transform="translate(91.625,86.125)"/>
<path d="M0 0 C0.33 0.99 0.66 1.98 1 3 C1.66 2.67 2.32 2.34 3 2 C5.55157655 1.9283265 8.07472971 1.90691558 10.625 1.9375 C11.68460938 1.94426758 11.68460938 1.94426758 12.765625 1.95117188 C14.51045275 1.96296125 16.255237 1.98089676 18 2 C17.27312238 4.72336814 16.53686433 7.44351823 15.78515625 10.16015625 C15.19622836 12.29025863 14.62493435 14.42524947 14.0625 16.5625 C12.78766998 19.48711004 11.82691948 19.76072419 9 21 C9.45237761 19.08191891 9.91214463 17.16557967 10.375 15.25 C10.75785156 13.64898437 10.75785156 13.64898437 11.1484375 12.015625 C12 9 12 9 14 5 C10.04 5 6.08 5 2 5 C2 7.31 2 9.62 2 12 C1.67 11.34 1.34 10.68 1 10 C0.34 10 -0.32 10 -1 10 C-1 9.01 -1 8.02 -1 7 C-1.62648438 7.15597656 -2.25296875 7.31195313 -2.8984375 7.47265625 C-3.71570313 7.66730469 -4.53296875 7.86195312 -5.375 8.0625 C-6.18710938 8.25972656 -6.99921875 8.45695312 -7.8359375 8.66015625 C-10 9 -10 9 -12 8 C-11.67 6.68 -11.34 5.36 -11 4 C-11 4.99 -11 5.98 -11 7 C-10.37351562 6.71125 -9.74703125 6.4225 -9.1015625 6.125 C-7.87566406 5.568125 -7.87566406 5.568125 -6.625 5 C-5.81289062 4.62875 -5.00078125 4.2575 -4.1640625 3.875 C-2 3 -2 3 0 3 C0 2.01 0 1.02 0 0 Z " fill="#2B3E77" transform="translate(102,33)"/>
<path d="M0 0 C3.47035852 1.43029961 5.03963742 3.08086883 7.1875 6.125 C17.96244879 20.3025642 33.48300726 28.00079347 50.72265625 31.5625 C55.26426399 32.16876945 59.79978713 32.36343582 64.375 32.5625 C65.30183594 32.60568359 66.22867188 32.64886719 67.18359375 32.69335938 C69.45560294 32.79876186 71.72770925 32.90088606 74 33 C74 33.33 74 33.66 74 34 C50.19491052 34.81352829 30.49692651 32.10595937 11.77734375 15.7734375 C7.26698303 11.26942047 3.48394626 6.34029137 0 1 C0 0.67 0 0.34 0 0 Z " fill="#3B608A" transform="translate(9,101)"/>
<path d="M0 0 C0 4.95 0 9.9 0 15 C-4.455 16.485 -4.455 16.485 -9 18 C-10.63559795 13.86289929 -11.415735 11.26695945 -10 7 C-7.96875 4.98046875 -7.96875 4.98046875 -5.5 3.1875 C-4.27796875 2.28064453 -4.27796875 2.28064453 -3.03125 1.35546875 C-1 0 -1 0 0 0 Z " fill="#EFF1F5" transform="translate(100,22)"/>
<path d="M0 0 C3.4072219 1.70361095 5.48035706 3.13232136 8.25 5.625 C8.95640625 6.25664062 9.6628125 6.88828125 10.390625 7.5390625 C10.92171875 8.02117188 11.4528125 8.50328125 12 9 C11.34 11.97 10.68 14.94 10 18 C5.545 17.01 5.545 17.01 1 16 C0.67 10.72 0.34 5.44 0 0 Z " fill="#F4F5F8" transform="translate(41,22)"/>
<path d="M0 0 C0 0.33 0 0.66 0 1 C-1.1859375 1.02578125 -2.371875 1.0515625 -3.59375 1.078125 C-26.14322866 1.77437151 -47.00371214 7.4376858 -63.125 24.2109375 C-66.42749782 27.8511821 -66.42749782 27.8511821 -69 32 C-69.99 31.67 -70.98 31.34 -72 31 C-70.71580959 29.32756598 -69.42242815 27.66218553 -68.125 26 C-67.40570313 25.071875 -66.68640625 24.14375 -65.9453125 23.1875 C-65.30335937 22.465625 -64.66140625 21.74375 -64 21 C-63.34 21 -62.68 21 -62 21 C-62 20.34 -62 19.68 -62 19 C-44.09504965 2.62880703 -23.48829172 -0.61669811 0 0 Z " fill="#3F638D" transform="translate(82,0)"/>
<path d="M0 0 C6.70880162 1.04481337 12.0564116 2.69800644 18 6 C18 6.99 18 7.98 18 9 C14.5402669 10.72986655 10.78289201 10.48431489 7 10 C3.66399633 7.94161475 2.1737824 6.2606736 0 3 C0 2.01 0 1.02 0 0 Z " fill="#F4F5F8" transform="translate(41,57)"/>
<path d="M0 0 C0.33 0 0.66 0 1 0 C1 9.24 1 18.48 1 28 C-1.19411358 25.80588642 -2.19663232 23.83908475 -3.5625 21.0625 C-3.99691406 20.18722656 -4.43132813 19.31195313 -4.87890625 18.41015625 C-6 16 -6 16 -7 13 C-5.93430618 10.6682503 -4.83522353 8.52478591 -3.5625 6.3125 C-3.22412109 5.70599609 -2.88574219 5.09949219 -2.53710938 4.47460938 C-1.70042085 2.9779975 -0.85137169 1.48830811 0 0 Z " fill="#DADEE8" transform="translate(63,18)"/>
<path d="M0 0 C-2.10827691 3.99462993 -4.07233077 6.69462893 -8 9 C-11.05665006 9.47677384 -13.96653637 9.66152154 -17 9 C-17.66 8.01 -18.32 7.02 -19 6 C-6.41346154 -2.56538462 -6.41346154 -2.56538462 0 0 Z " fill="#F6F7F9" transform="translate(101,58)"/>
<path d="M0 0 C3.625 0.625 3.625 0.625 5.9375 3.8125 C6.32421875 4.44929688 6.7109375 5.08609375 7.109375 5.7421875 C10.02620581 9.36567319 14.4472978 10.81126587 18.625 12.625 C19.96238169 13.28350774 21.29723196 13.947317 22.625 14.625 C14.1644438 15.80947787 7.78360595 11.58129465 0.625 7.625 C-0.18582031 7.17769531 -0.99664063 6.73039062 -1.83203125 6.26953125 C-3.35813299 5.40857365 -4.86933973 4.52122635 -6.375 3.625 C-4.45721565 0.91753975 -3.33301581 0.61722515 0 0 Z " fill="#F1F2F6" transform="translate(26.375,57.375)"/>
<path d="M0 0 C1.54855263 0.27636411 3.09375551 0.57738519 4.625 0.9375 C4.625 1.5975 4.625 2.2575 4.625 2.9375 C-15.64592321 14.11631795 -15.64592321 14.11631795 -22.625 14 C-24.48125 13.9690625 -24.48125 13.9690625 -26.375 13.9375 C-26.375 13.6075 -26.375 13.2775 -26.375 12.9375 C-25.79492188 12.83953125 -25.21484375 12.7415625 -24.6171875 12.640625 C-17.4985552 11.27798251 -12.9191102 9.12957749 -8.625 3.125 C-5.93781583 -0.25194267 -4.24112373 -0.44203261 0 0 Z " fill="#EEF0F4" transform="translate(117.375,58.0625)"/>
<path d="M0 0 C1.6227539 2.43413085 3.19117418 4.86254462 4.6875 7.375 C5.14511719 8.12523437 5.60273437 8.87546875 6.07421875 9.6484375 C7.24213972 12.61505531 6.96551857 13.98626971 6 17 C4.80859375 19.45703125 4.80859375 19.45703125 3.4375 21.8125 C2.98246094 22.60269531 2.52742188 23.39289062 2.05859375 24.20703125 C1.70925781 24.79871094 1.35992187 25.39039062 1 26 C0.67 26 0.34 26 0 26 C0 17.42 0 8.84 0 0 Z " fill="#F1F3F6" transform="translate(78,18)"/>
<path d="M0 0 C0 0.99 0 1.98 0 3 C-11.84035407 13.4675594 -26.73764128 17.53639941 -42.125 17.1875 C-43.27226563 17.17396484 -44.41953125 17.16042969 -45.6015625 17.14648438 C-48.40154958 17.11148454 -51.20051217 17.06238859 -54 17 C-54 16.67 -54 16.34 -54 16 C-52.11667969 15.92652344 -52.11667969 15.92652344 -50.1953125 15.8515625 C-30.75106329 15.01993078 -16.39435499 10.92956999 0 0 Z " fill="#537399" transform="translate(117,117)"/>
<path d="M0 0 C2 2 2 2 3.125 4.5625 C2.94600578 9.48484113 0.28219061 11.18915257 -3.05078125 14.609375 C-6.0174744 18.24788443 -6.41618238 21.40243628 -7 26 C-7.33 26 -7.66 26 -8 26 C-8.71269927 15.4084969 -6.1062292 8.50510495 0 0 Z " fill="#E7EAF0" transform="translate(86,34)"/>
<path d="M0 0 C5.43746955 1.81248985 7.69148498 3.05370669 11.875 6.625 C12.84179688 7.44226563 13.80859375 8.25953125 14.8046875 9.1015625 C15.89136719 10.04128906 15.89136719 10.04128906 17 11 C16.01 11.66 15.02 12.32 14 13 C13.37351562 12.43410156 12.74703125 11.86820313 12.1015625 11.28515625 C11.28429688 10.55167969 10.46703125 9.81820313 9.625 9.0625 C8.81289063 8.33160156 8.00078125 7.60070312 7.1640625 6.84765625 C5.14075833 4.97010529 5.14075833 4.97010529 3 4 C3.33 4.66 3.66 5.32 4 6 C4.07092842 8.2072923 4.08415025 10.41667452 4.0625 12.625 C4.05347656 13.81351563 4.04445313 15.00203125 4.03515625 16.2265625 C4.02355469 17.14179687 4.01195312 18.05703125 4 19 C3.01 18.67 2.02 18.34 1 18 C0.67 12.06 0.34 6.12 0 0 Z " fill="#2B3E77" transform="translate(38,18)"/>
<path d="M0 0 C4.33252533 3.92595404 7.5536898 9.60913102 8.3203125 15.43359375 C8.3125 17.625 8.3125 17.625 8 21 C7.34 20.01 6.68 19.02 6 18 C5.19513485 16.80731203 4.382309 15.61996594 3.5625 14.4375 C3.15128906 13.83808594 2.74007812 13.23867188 2.31640625 12.62109375 C0.91077886 10.726571 0.91077886 10.726571 -2 9 C-1.125 1.125 -1.125 1.125 0 0 Z " fill="#EDEFF3" transform="translate(55,34)"/>
<path d="M0 0 C-0.16650454 6.5390874 -1.38065214 12.10028709 -6 17 C-6.99 17 -7.98 17 -9 17 C-8.96976128 10.46843612 -7.53145045 6.54946948 -3.47265625 1.43359375 C-2 0 -2 0 0 0 Z " fill="#EFF1F5" transform="translate(89,45)"/>
<path d="M0 0 C1.32 0 2.64 0 4 0 C3.67 4.62 3.34 9.24 3 14 C-2.625 9.5 -2.625 9.5 -5 6 C-5.33 8.31 -5.66 10.62 -6 13 C-6.66 13 -7.32 13 -8 13 C-8.33 9.04 -8.66 5.08 -9 1 C-5 1 -5 1 -3.515625 2.3125 C-2.34375 3.875 -1.171875 5.4375 0 7 C0 4.69 0 2.38 0 0 Z " fill="#2F427A" transform="translate(111,86)"/>
<path d="M0 0 C6.50547445 5.09124088 6.50547445 5.09124088 8 9 C8.1953125 11.359375 8.1953125 11.359375 8.125 13.75 C8.10695313 14.54921875 8.08890625 15.3484375 8.0703125 16.171875 C8.03550781 17.07679687 8.03550781 17.07679687 8 18 C3.11242627 13.50871604 0.14069848 9.9077686 -0.1875 3.125 C-0.125625 2.09375 -0.06375 1.0625 0 0 Z " fill="#F5F6F8" transform="translate(53,45)"/>
<path d="M0 0 C2 2 2 2 2.1953125 4.3828125 C2.17210938 5.28773437 2.14890625 6.19265625 2.125 7.125 C2.10695313 8.03507812 2.08890625 8.94515625 2.0703125 9.8828125 C2.04710938 10.58148438 2.02390625 11.28015625 2 12 C3.65 12 5.3 12 7 12 C7 12.33 7 12.66 7 13 C5.02 13 3.04 13 1 13 C0.938125 13.70125 0.87625 14.4025 0.8125 15.125 C-0.3002593 19.06245598 -2.08808395 21.15279319 -5 24 C-8.3125 24.875 -8.3125 24.875 -11 25 C-10.236875 24.401875 -9.47375 23.80375 -8.6875 23.1875 C-4.36789787 19.78488452 -4.36789787 19.78488452 -2 15 C-3.65 14.67 -5.3 14.34 -7 14 C-4 12 -4 12 0 12 C0 8.04 0 4.08 0 0 Z " fill="#102566" transform="translate(102,43)"/>
<path d="M0 0 C1.38730869 4.16192607 0.05703094 5.61876452 -1.875 9.5 C-6.19476809 18.00752478 -11.41129916 26.37415586 -20 31 C-18.55321537 27.70782682 -16.72142266 25.47095171 -14.25 22.875 C-8.07039204 16.05728035 -3.96936346 8.24406257 0 0 Z " fill="#42668F" transform="translate(138,87)"/>
<path d="M0 0 C1.98 0 3.96 0 6 0 C6.515625 1.0725 7.03125 2.145 7.5625 3.25 C9.93355373 7.46996205 12.69743642 8.93145982 17 11 C17 11.33 17 11.66 17 12 C12.65930324 12.65110451 10.2916161 11.84446503 6.8125 9.375 C3.43794066 6.66502883 1.56136706 4.09858855 0 0 Z " fill="#E9EBF1" transform="translate(32,57)"/>
<path d="M0 0 C0.99 0 1.98 0 3 0 C3 1.32 3 2.64 3 4 C4.65 4.33 6.3 4.66 8 5 C8.125 7.875 8.125 7.875 8 11 C7.34 11.66 6.68 12.32 6 13 C4.35 12.67 2.7 12.34 1 12 C0.67 8.04 0.34 4.08 0 0 Z " fill="#7C88AC" transform="translate(81,108)"/>
<path d="M0 0 C2.97 0 5.94 0 9 0 C8.67 0.99 8.34 1.98 8 3 C6.68 2.67 5.36 2.34 4 2 C4 2.99 4 3.98 4 5 C5.32 4.67 6.64 4.34 8 4 C7.67 5.32 7.34 6.64 7 8 C6.01 7.67 5.02 7.34 4 7 C4.33 8.98 4.66 10.96 5 13 C3.35 13 1.7 13 0 13 C0 8.71 0 4.42 0 0 Z " fill="#7C87AB" transform="translate(36,108)"/>
<path d="M0 0 C2.5 0.125 2.5 0.125 3.5 1.125 C3.6328125 2.9375 3.6328125 2.9375 3.625 5.125 C3.62757812 5.846875 3.63015625 6.56875 3.6328125 7.3125 C3.5 9.125 3.5 9.125 2.5 10.125 C0.83382885 10.16563832 -0.83388095 10.167721 -2.5 10.125 C-3.99106457 7.14287087 -3.61941467 4.40890342 -3.5 1.125 C-2.5 0.125 -2.5 0.125 0 0 Z " fill="#F5F6F9" transform="translate(90.5,87.875)"/>
<path d="M0 0 C0.886875 0.165 1.77375 0.33 2.6875 0.5 C1.3196397 5.66747225 -1.89167894 8.72372437 -6.3125 11.5 C-8.75977863 12.23038936 -10.73435475 12.39476958 -13.3125 12.5 C-12.2296875 11.7575 -12.2296875 11.7575 -11.125 11 C-8.52874862 8.692221 -7.49131134 7.20973894 -5.875 4.25 C-3.7311935 0.56319902 -3.7311935 0.56319902 0 0 Z " fill="#F1F2F6" transform="translate(106.3125,56.5)"/>
<path d="M0 0 C1.32 0 2.64 0 4 0 C3.27312238 2.72336814 2.53686433 5.44351823 1.78515625 8.16015625 C1.19622836 10.29025863 0.62493435 12.42524947 0.0625 14.5625 C-1.21233002 17.48711004 -2.17308052 17.76072419 -5 19 C-4.54762239 17.08191891 -4.08785537 15.16557967 -3.625 13.25 C-3.36976562 12.18265625 -3.11453125 11.1153125 -2.8515625 10.015625 C-2 7 -2 7 0 3 C-2.97 3 -5.94 3 -9 3 C-9 2.67 -9 2.34 -9 2 C-4.545 1.505 -4.545 1.505 0 1 C0 0.67 0 0.34 0 0 Z " fill="#2F427A" transform="translate(116,35)"/>
<path d="M0 0 C0.66 0 1.32 0 2 0 C2 3.96 2 7.92 2 12 C0.35 12.33 -1.3 12.66 -3 13 C-5 11 -5 11 -5.25 8.5 C-5 6 -5 6 -3 4 C-2.01 4 -1.02 4 0 4 C0 2.68 0 1.36 0 0 Z " fill="#3D4F83" transform="translate(70,108)"/>
<path d="M0 0 C1.2065625 0.0309375 1.2065625 0.0309375 2.4375 0.0625 C2.7675 1.3825 3.0975 2.7025 3.4375 4.0625 C2.7775 4.0625 2.1175 4.0625 1.4375 4.0625 C1.4375 3.4025 1.4375 2.7425 1.4375 2.0625 C0.1175 2.0625 -1.2025 2.0625 -2.5625 2.0625 C-2.5625 3.0525 -2.5625 4.0425 -2.5625 5.0625 C-0.5825 5.7225 1.3975 6.3825 3.4375 7.0625 C3.5625 9.4375 3.5625 9.4375 3.4375 12.0625 C1.4375 14.0625 1.4375 14.0625 -1.1875 14.1875 C-1.97125 14.14625 -2.755 14.105 -3.5625 14.0625 C-4.2225 12.7425 -4.8825 11.4225 -5.5625 10.0625 C-4.9025 10.0625 -4.2425 10.0625 -3.5625 10.0625 C-3.5625 10.7225 -3.5625 11.3825 -3.5625 12.0625 C-1.9125 12.0625 -0.2625 12.0625 1.4375 12.0625 C0.19203595 8.32610784 -1.19654953 7.87493487 -4.5625 6.0625 C-3.48963568 0.08511307 -3.48963568 0.08511307 0 0 Z " fill="#35477E" transform="translate(42.5625,85.9375)"/>
<path d="M0 0 C-0.33 0.99 -0.66 1.98 -1 3 C-1 2.34 -1 1.68 -1 1 C-3.31 1.66 -5.62 2.32 -8 3 C-7.67 5.31 -7.34 7.62 -7 10 C-4.03 10.495 -4.03 10.495 -1 11 C-1 10.34 -1 9.68 -1 9 C-0.34 9.33 0.32 9.66 1 10 C-0.0625 11.5625 -0.0625 11.5625 -2 13 C-5.75281005 12.93298553 -8.08874514 12.76887129 -11 10.3125 C-12.38906225 7.10029355 -12.05521374 5.3063364 -11 2 C-7.71909353 -1.91185002 -4.67871718 -0.98972863 0 0 Z " fill="#3C4E83" transform="translate(79,87)"/>
<path d="M0 0 C0.66 0 1.32 0 2 0 C2.33 3.96 2.66 7.92 3 12 C0.69 12 -1.62 12 -4 12 C-4.625 9.125 -4.625 9.125 -5 6 C-4.34 5.34 -3.68 4.68 -3 4 C-2.01 4 -1.02 4 0 4 C0 2.68 0 1.36 0 0 Z " fill="#7783A8" transform="translate(103,108)"/>
<path d="M0 0 C0.99 0.33 1.98 0.66 3 1 C2.67 2.32 2.34 3.64 2 5 C2.99 4.67 3.98 4.34 5 4 C7.475 7.465 7.475 7.465 10 11 C9.01 11.33 8.02 11.66 7 12 C6.01 10.68 5.02 9.36 4 8 C3.67 9.32 3.34 10.64 3 12 C2.01 12 1.02 12 0 12 C0 8.04 0 4.08 0 0 Z " fill="#1B2F6D" transform="translate(53,87)"/>
<path d="M0 0 C2.37214928 0.91825133 4.70645888 1.85380728 6.984375 2.98828125 C12.66464285 5.7579154 17.69982663 6.73694474 24 7 C24 7.33 24 7.66 24 8 C13.69750675 8.82298023 6.82198198 7.42891199 -2 2 C-1.34 1.34 -0.68 0.68 0 0 Z " fill="#1F3370" transform="translate(27,65)"/>
<path d="M0 0 C4.33333333 0 8.66666667 0 13 0 C11.61990379 3.33523252 10.15049348 5.18607951 7 7 C6.01 6.67 5.02 6.34 4 6 C4 4.68 4 3.36 4 2 C2.68 2 1.36 2 0 2 C0 1.34 0 0.68 0 0 Z " fill="#A6AEC6" transform="translate(51,86)"/>
<path d="M0 0 C5.26053037 -0.31563182 8.44573816 0.33409063 13 3 C13 3.33 13 3.66 13 4 C11.02 4 9.04 4 7 4 C7 4.66 7 5.32 7 6 C4.0625 5.25 4.0625 5.25 1 4 C0.125 1.875 0.125 1.875 0 0 Z " fill="#435487" transform="translate(84,67)"/>
<path d="M0 0 C1.78582287 3.38148868 3.14488935 6.8638088 4.5 10.4375 C5.96980215 14.30469286 7.45114455 18.16371451 9 22 C6.07444285 20.96230238 5.10808964 20.18489018 3.515625 17.4609375 C1.00898663 11.34907234 -0.63634518 6.61798991 0 0 Z " fill="#4A6C94" transform="translate(2,79)"/>
<path d="M0 0 C0 0.66 0 1.32 0 2 C-1.32 1.67 -2.64 1.34 -4 1 C-4.33 1.99 -4.66 2.98 -5 4 C-5.66 4 -6.32 4 -7 4 C-7 2.68 -7 1.36 -7 0 C-13.93 -0.495 -13.93 -0.495 -21 -1 C-21 -1.33 -21 -1.66 -21 -2 C-18.4380143 -2.2498764 -15.87765869 -2.47541116 -13.3125 -2.6875 C-12.2306543 -2.79674805 -12.2306543 -2.79674805 -11.12695312 -2.90820312 C-6.49148172 -3.26803424 -3.62892417 -3.01336701 0 0 Z " fill="#112666" transform="translate(45,38)"/>
<path d="M0 0 C3.96 0 7.92 0 12 0 C12 0.33 12 0.66 12 1 C7.545 1.495 7.545 1.495 3 2 C3.495 2.928125 3.99 3.85625 4.5 4.8125 C6 8 6 8 6 11 C5.34 11 4.68 11 4 11 C3.67 11.66 3.34 12.32 3 13 C2.49487756 11.39743892 1.99608373 9.79288208 1.5 8.1875 C1.2215625 7.29417969 0.943125 6.40085937 0.65625 5.48046875 C0 3 0 3 0 0 Z " fill="#32457C" transform="translate(22,35)"/>
<path d="M0 0 C1.65 0.33 3.3 0.66 5 1 C5.33 3.31 5.66 5.62 6 8 C3.69 8 1.38 8 -1 8 C-0.43628586 4.73045798 0.49962266 3.17424117 3 1 C2.34 1 1.68 1 1 1 C1 1.66 1 2.32 1 3 C0.34 3 -0.32 3 -1 3 C-0.67 2.01 -0.34 1.02 0 0 Z " fill="#415286" transform="translate(47,112)"/>
<path d="M0 0 C1.65 0 3.3 0 5 0 C5.33 2.64 5.66 5.28 6 8 C3.69 8 1.38 8 -1 8 C-0.43628586 4.73045798 0.49962266 3.17424117 3 1 C2.34 1 1.68 1 1 1 C0.67 1.66 0.34 2.32 0 3 C0 2.01 0 1.02 0 0 Z " fill="#36487F" transform="translate(91,112)"/>
<path d="M0 0 C2.58390632 1.12369879 5.16713708 2.24890752 7.75 3.375 C8.47960938 3.69210938 9.20921875 4.00921875 9.9609375 4.3359375 C11.02441406 4.8 11.02441406 4.8 12.109375 5.2734375 C12.75874023 5.55622559 13.40810547 5.83901367 14.07714844 6.13037109 C16.07933508 7.03588009 18.04086056 8.00518406 20 9 C12.85035983 8.65404967 6.97740109 7.10353328 1 3 C0.67 2.01 0.34 1.02 0 0 Z " fill="#456891" transform="translate(33,123)"/>
<path d="M0 0 C2.64 0 5.28 0 8 0 C8 2.64 8 5.28 8 8 C7.34 8 6.68 8 6 8 C6 6.02 6 4.04 6 2 C4.35 2 2.7 2 1 2 C1.33 3.98 1.66 5.96 2 8 C1.34 8 0.68 8 0 8 C0 5.36 0 2.72 0 0 Z " fill="#455688" transform="translate(55,112)"/>
<path d="M0 0 C1.65 0 3.3 0 5 0 C5 1.98 5 3.96 5 6 C5.99 5.67 6.98 5.34 8 5 C8 5.66 8 6.32 8 7 C2.25 6.125 2.25 6.125 0 5 C0 3.35 0 1.7 0 0 Z " fill="#E5E7EE" transform="translate(56,114)"/>
<path d="M0 0 C0.66 1.32 1.32 2.64 2 4 C1.01 4.66 0.02 5.32 -1 6 C-1 6.33 -1 6.66 -1 7 C-2.4562672 7.36256858 -3.91511185 7.71479793 -5.375 8.0625 C-6.18710938 8.25972656 -6.99921875 8.45695312 -7.8359375 8.66015625 C-10 9 -10 9 -12 8 C-11.67 6.68 -11.34 5.36 -11 4 C-11 4.99 -11 5.98 -11 7 C-10.37351562 6.71125 -9.74703125 6.4225 -9.1015625 6.125 C-7.87566406 5.568125 -7.87566406 5.568125 -6.625 5 C-5.81289062 4.62875 -5.00078125 4.2575 -4.1640625 3.875 C-2 3 -2 3 0 3 C0 2.01 0 1.02 0 0 Z " fill="#3E5084" transform="translate(102,33)"/>
<path d="M0 0 C6.31631828 0.40316925 10.64993984 2.71232131 16 6 C16 6.99 16 7.98 16 9 C10.72 6.36 5.44 3.72 0 1 C0 0.67 0 0.34 0 0 Z " fill="#4C6D95" transform="translate(95,5)"/>
<path d="M0 0 C1.2065625 0.0309375 1.2065625 0.0309375 2.4375 0.0625 C2.7675 1.3825 3.0975 2.7025 3.4375 4.0625 C2.7775 4.0625 2.1175 4.0625 1.4375 4.0625 C1.4375 3.4025 1.4375 2.7425 1.4375 2.0625 C0.1175 2.0625 -1.2025 2.0625 -2.5625 2.0625 C-2.5625 3.0525 -2.5625 4.0425 -2.5625 5.0625 C-1.9025 5.0625 -1.2425 5.0625 -0.5625 5.0625 C-0.5625 6.0525 -0.5625 7.0425 -0.5625 8.0625 C-1.8825 7.4025 -3.2025 6.7425 -4.5625 6.0625 C-3.48963568 0.08511307 -3.48963568 0.08511307 0 0 Z " fill="#445588" transform="translate(42.5625,85.9375)"/>
<path d="M0 0 C2.1953125 0.91015625 2.1953125 0.91015625 4 2 C3.25234375 2.26554687 2.5046875 2.53109375 1.734375 2.8046875 C0.74953125 3.15789063 -0.2353125 3.51109375 -1.25 3.875 C-2.22453125 4.22304688 -3.1990625 4.57109375 -4.203125 4.9296875 C-6.56294327 5.83274645 -8.76905116 6.82078418 -11 8 C-11.66 7.34 -12.32 6.68 -13 6 C-12.01 6 -11.02 6 -10 6 C-9.34 4.68 -8.68 3.36 -8 2 C-7.34 2.33 -6.68 2.66 -6 3 C-4.576875 2.2265625 -4.576875 2.2265625 -3.125 1.4375 C-2.09375 0.963125 -1.0625 0.48875 0 0 Z " fill="#3F5084" transform="translate(93,56)"/>
<path d="M0 0 C1.65 0.33 3.3 0.66 5 1 C5.33 3.31 5.66 5.62 6 8 C3.69 8 1.38 8 -1 8 C-0.67 7.01 -0.34 6.02 0 5 C0 5.66 0 6.32 0 7 C0.99 7 1.98 7 3 7 C2.814375 6.38125 2.62875 5.7625 2.4375 5.125 C2 3 2 3 3 1 C1.02 1.99 1.02 1.99 -1 3 C-0.67 2.01 -0.34 1.02 0 0 Z " fill="#445588" transform="translate(75,112)"/>
<path d="M0 0 C0.33 0 0.66 0 1 0 C1 4.29 1 8.58 1 13 C0.01 13.33 -0.98 13.66 -2 14 C-2.05389087 12.04196493 -2.09274217 10.08351091 -2.125 8.125 C-2.14820313 7.03445312 -2.17140625 5.94390625 -2.1953125 4.8203125 C-2 2 -2 2 0 0 Z " fill="#3B4D82" transform="translate(39,41)"/>
<path d="M0 0 C1.32 0 2.64 0 4 0 C3.34 2.31 2.68 4.62 2 7 C1.01 7 0.02 7 -1 7 C-0.67 5.68 -0.34 4.36 0 3 C-2.97 3 -5.94 3 -9 3 C-9 2.67 -9 2.34 -9 2 C-4.545 1.505 -4.545 1.505 0 1 C0 0.67 0 0.34 0 0 Z " fill="#48588A" transform="translate(116,35)"/>
<path d="M0 0 C0 1.98 0 3.96 0 6 C-1.98 6.33 -3.96 6.66 -6 7 C-6 5.35 -6 3.7 -6 2 C-2.25 0 -2.25 0 0 0 Z " fill="#D1D5E2" transform="translate(78,113)"/>
<path d="M0 0 C2 1.375 2 1.375 4 3 C4 3.66 4 4.32 4 5 C5.65 4.67 7.3 4.34 9 4 C9 4.66 9 5.32 9 6 C4.71 6 0.42 6 -4 6 C-3.67 5.34 -3.34 4.68 -3 4 C-2.01 4.33 -1.02 4.66 0 5 C0 3.35 0 1.7 0 0 Z " fill="#B7BED1" transform="translate(56,94)"/>
<path d="M0 0 C1.32 0 2.64 0 4 0 C3.67 3.96 3.34 7.92 3 12 C2.67 11.01 2.34 10.02 2 9 C1.34 8.67 0.68 8.34 0 8 C0 5.36 0 2.72 0 0 Z " fill="#67759E" transform="translate(111,86)"/>
<path d="M0 0 C0.99 0.33 1.98 0.66 3 1 C3.73046875 2.84765625 3.73046875 2.84765625 4.1875 5.0625 C4.34605469 5.79597656 4.50460938 6.52945313 4.66796875 7.28515625 C4.83232422 8.13400391 4.83232422 8.13400391 5 9 C4.01 9.33 3.02 9.66 2 10 C0.68373308 6.38026598 0 3.90432869 0 0 Z " fill="#1C306E" transform="translate(26,46)"/>
<path d="M0 0 C3.375 0.25 3.375 0.25 7 1 C8.4375 3.0625 8.4375 3.0625 9 5 C8.34 5 7.68 5 7 5 C6.67 6.32 6.34 7.64 6 9 C5.938125 8.05125 5.87625 7.1025 5.8125 6.125 C5.544375 5.09375 5.27625 4.0625 5 3 C2.53744315 1.54708727 2.53744315 1.54708727 0 1 C0 0.67 0 0.34 0 0 Z " fill="#4F5E8E" transform="translate(88,86)"/>
<path d="M0 0 C2.3431213 0.25561323 4.67843403 0.59270772 7 1 C7.33 1.66 7.66 2.32 8 3 C5.03 3.66 2.06 4.32 -1 5 C-0.67 3.35 -0.34 1.7 0 0 Z " fill="#152A69" transform="translate(121,58)"/>
<path d="M0 0 C0.33 0.66 0.66 1.32 1 2 C0.01 2.33 -0.98 2.66 -2 3 C-2.99 4.485 -2.99 4.485 -4 6 C-5.32 4.68 -6.64 3.36 -8 2 C-4.77208445 -0.1519437 -3.71599191 -0.20086443 0 0 Z " fill="#7C88AC" transform="translate(55,67)"/>
<path d="M0 0 C5.445 1.485 5.445 1.485 11 3 C11 3.33 11 3.66 11 4 C6.07872966 4.16682272 2.49656104 4.24828052 -2 2 C-1.34 1.34 -0.68 0.68 0 0 Z " fill="#D2D6E2" transform="translate(38,68)"/>
<path d="M0 0 C0.66 0.33 1.32 0.66 2 1 C-3.14285714 7.57142857 -3.14285714 7.57142857 -7 9 C-5.44499019 5.18315774 -2.96404505 2.80804268 0 0 Z " fill="#385F88" transform="translate(125,109)"/>
<path d="M0 0 C0.33 0 0.66 0 1 0 C1 2.31 1 4.62 1 7 C1.66 7.33 2.32 7.66 3 8 C2.01 8.33 1.02 8.66 0 9 C-0.66 9.66 -1.32 10.32 -2 11 C-2.19622241 6.78121808 -1.80230168 3.82989106 0 0 Z " fill="#7884A9" transform="translate(63,51)"/>
<path d="M0 0 C4.05606165 0.46800711 7.46588679 0.87953208 11 3 C6.99799622 4.60080151 3.95443764 3.29279692 0 2 C0 1.34 0 0.68 0 0 Z " fill="#3A4B81" transform="translate(41,55)"/>
<path d="M0 0 C0 0.33 0 0.66 0 1 C-0.93972656 1.19916016 -0.93972656 1.19916016 -1.8984375 1.40234375 C-3.12433594 1.66724609 -3.12433594 1.66724609 -4.375 1.9375 C-5.18710937 2.11152344 -5.99921875 2.28554688 -6.8359375 2.46484375 C-9.029463 2.92330693 -9.029463 2.92330693 -11 4 C-11 2.68 -11 1.36 -11 0 C-6.94952424 -1.35015859 -4.2079832 -0.62084998 0 0 Z " fill="#394B81" transform="translate(30,57)"/>
<path d="M0 0 C0.99 0 1.98 0 3 0 C3 2.64 3 5.28 3 8 C2.67 7.34 2.34 6.68 2 6 C1.34 6 0.68 6 0 6 C-0.38218767 4.34385343 -0.71395102 2.67542976 -1 1 C-0.67 0.67 -0.34 0.34 0 0 Z " fill="#233672" transform="translate(101,37)"/>
<path d="M0 0 C2.21399303 3.79541663 3.00980198 7.75629421 4 12 C2 10.5 2 10.5 0 8 C-0.35800135 5.24128373 -0.18660165 2.79902476 0 0 Z " fill="#55769B" transform="translate(2,79)"/>
<path d="M0 0 C0 0.99 0 1.98 0 3 C-1.98 3.66 -3.96 4.32 -6 5 C-6.66 4.34 -7.32 3.68 -8 3 C-2.25 0 -2.25 0 0 0 Z " fill="#2A3D77" transform="translate(113,66)"/>
<path d="M0 0 C-0.33 0.99 -0.66 1.98 -1 3 C-4.67566856 4.61729417 -9.07239675 4.06546005 -13 4 C-13 3.67 -13 3.34 -13 3 C-12.37351562 2.86722656 -11.74703125 2.73445313 -11.1015625 2.59765625 C-10.28429687 2.42105469 -9.46703125 2.24445313 -8.625 2.0625 C-7.81289062 1.88847656 -7.00078125 1.71445313 -6.1640625 1.53515625 C-3.88723554 0.9721142 -2.3530537 0 0 0 Z " fill="#DFE2EB" transform="translate(104,68)"/>
<path d="M0 0 C1.32 0 2.64 0 4 0 C4 1.32 4 2.64 4 4 C2.35 4 0.7 4 -1 4 C-0.67 2.68 -0.34 1.36 0 0 Z " fill="#7A86AB" transform="translate(47,116)"/>
<path d="M0 0 C0.99 0 1.98 0 3 0 C3 1.98 3 3.96 3 6 C2.01 6 1.02 6 0 6 C0 4.02 0 2.04 0 0 Z " fill="#F5F6F9" transform="translate(67,113)"/>
<path d="M0 0 C1.65 0 3.3 0 5 0 C4.34 2.31 3.68 4.62 3 7 C2.34 7 1.68 7 1 7 C1.66 5.02 2.32 3.04 3 1 C2.34 1 1.68 1 1 1 C0.67 1.66 0.34 2.32 0 3 C0 2.01 0 1.02 0 0 Z " fill="#909AB9" transform="translate(91,112)"/>
<path d="M0 0 C0.66 0 1.32 0 2 0 C1.67 2.31 1.34 4.62 1 7 C-0.32 7.33 -1.64 7.66 -3 8 C-2.01 5.36 -1.02 2.72 0 0 Z " fill="#112667" transform="translate(95,91)"/>
<path d="M0 0 C0.66 0.99 1.32 1.98 2 3 C-2.75 6 -2.75 6 -5 6 C-3.86695008 2.60085025 -2.87481525 1.94745549 0 0 Z " fill="#33467D" transform="translate(57,66)"/>
<path d="M0 0 C0.33 0.99 0.66 1.98 1 3 C-1.25 4.5625 -1.25 4.5625 -4 6 C-5.32 5.67 -6.64 5.34 -8 5 C-4.04 2.525 -4.04 2.525 0 0 Z " fill="#30427B" transform="translate(104,64)"/>
<path d="M0 0 C2.00720923 0.28674418 4.0085944 0.61866701 6 1 C6 1.66 6 2.32 6 3 C4.35 3.33 2.7 3.66 1 4 C1 3.34 1 2.68 1 2 C0.34 1.67 -0.32 1.34 -1 1 C-0.67 0.67 -0.34 0.34 0 0 Z " fill="#818CAF" transform="translate(87,67)"/>
<path d="M0 0 C2.17288535 2.17288535 2.64827002 3.01029519 3 6 C2.0625 8.25 2.0625 8.25 1 10 C-1 4.375 -1 4.375 -1 1 C-0.67 0.67 -0.34 0.34 0 0 Z " fill="#D3D7E3" transform="translate(76,58)"/>
<path d="M0 0 C0.99 0.33 1.98 0.66 3 1 C2.67 1.66 2.34 2.32 2 3 C1.34 3 0.68 3 0 3 C-0.28875 3.639375 -0.5775 4.27875 -0.875 4.9375 C-2 7 -2 7 -4 8 C-2.87548273 5.0280615 -1.77706209 2.66559313 0 0 Z " fill="#E0E2EB" transform="translate(65,59)"/>
<path d="M0 0 C0.99 0.33 1.98 0.66 3 1 C3 1.66 3 2.32 3 3 C4.65 3.33 6.3 3.66 8 4 C8 4.33 8 4.66 8 5 C3.48279689 5.36625971 3.48279689 5.36625971 1.1875 3.625 C0 2 0 2 0 0 Z " fill="#475789" transform="translate(85,95)"/>
<path d="M0 0 C0.33 0.99 0.66 1.98 1 3 C-0.75 4.5625 -0.75 4.5625 -3 6 C-5.25 5.6875 -5.25 5.6875 -7 5 C-6.030625 4.360625 -5.06125 3.72125 -4.0625 3.0625 C-1.23963731 1.3034741 -1.23963731 1.3034741 0 0 Z " fill="#384A80" transform="translate(98,62)"/>
</svg>
